# xmcd
#
# Track frame offsets: 
#        150
#        14999
#        32017
#        46925
#        61809
#        75036
#        90293
#        104701
#        120747
#        137670
#        150696
#        164971
#        176522
#
# Disc length: 2583 seconds
#
# Revision: 0
# Processed by: cddbd v1.5.2PL0 Copyright (c) Steve Scherf et al.
# Submitted via: ExactAudioCopy v1.0b3
#
DISCID=a40a150d
DTITLE=Angelillo - Grandes éxitos (vol. 1)
DYEAR=1900
DGENRE=Folklore
TTITLE0=Chiclanera
TTITLE1=Romance de Juan Clavel
TTITLE2=Al son de mi pasodoble
TTITLE3=No te mires en el río
TTITLE4=El pajarillo
TTITLE5=Fernanda
TTITLE6=Yo quise a una colombiana
TTITLE7=Tengo una hermana chicha
TTITLE8=Dos cruces
TTITLE9=Soy un pobre presidiario
TTITLE10=El querer no tiene edad
TTITLE11=En el mundo entero
TTITLE12=Triana tiene salero
EXTD=
EXTT0=
EXTT1=
EXTT2=
EXTT3=
EXTT4=
EXTT5=
EXTT6=
EXTT7=
EXTT8=
EXTT9=
EXTT10=
EXTT11=
EXTT12=
PLAYORDER=
